<?xml version='1.0' encoding='utf-8'?>
<svg xmlns="http://www.w3.org/2000/svg" version="1.1" width="600px" height="976px" viewBox="0 0 600 976"> <g id="layer1"> <g style="fill:rgb(0,0,0); fill-opacity:1.0; stroke-linejoin: miter"> <path d="M112.45261,13.153119Q112.00499,13.153119,111.529594,13.223368L111.47582,13.233576Q110.146225,13.505403,109.15604,14.370253L107.85192,15.581287Q104.7548,18.764423,104.06605,19.338057Q98.23573,24.171856,91.853516,30.282013Q91.043846,30.647472,90.48181,31.161663Q89.99669,31.589184,89.5936,32.21275Q87.991585,34.994873,89.69924,37.721737Q91.3352,39.872963,93.80059,39.872963Q94.26901,39.872963,94.76737,39.795307Q96.57123,39.44404,98.07556,38.12944Q99.670204,36.629883,100.93506,35.4516L100.936066,35.4516Q101.739685,38.17142,102.13179,39.063652L102.71697,40.434177Q104.785904,44.740494,105.34237,46.14006L106.93065,50.140266L107.62108,52.026672L107.62,52.026672Q107.30432,52.3098,107.00881,52.639626Q106.01382,53.55545,103.72042,57.84885Q102.75245,59.729774,102.298836,61.728153Q101.81497,63.77684,102.08587,66.115326Q102.27449,68.61055,103.12174,70.329895Q104.69621,73.61784,107.59876,73.61784Q107.77677,73.61784,107.95978,73.60548Q111.69016,73.11824,114.21278,70.52851Q115.06032,69.82499,118.548996,65.39145Q119.69307,63.710182,120.06917,61.99146Q120.5113,60.126965,120.08814,57.75766Q119.90126,56.690994,119.67814,55.95573Q119.37717,54.9479,118.91907,54.165466Q118.81586,52.819267,118.35129,51.96103Q118.2174,51.701405,118.06732,51.467712L118.06615,51.467712Q116.05848,45.844135,114.78012,42.798576Q114.27536,41.426147,111.543106,35.662643Q111.33147,35.162724,111.152954,34.642197Q110.48271,32.306892,109.93298,30.921175Q109.40042,29.548471,108.82679,28.420681L108.82571,28.420681L111.2389,26.326406L115.99599,21.655975Q116.38777,21.25988,116.67897,20.794827Q118.248184,17.985868,116.58018,15.336275Q114.94796,13.153119,112.45261,13.153119 Z M13.342332,148.80272Q11.5215,148.80272,8.815182,150.65479L-7.8327713,163.56154Q-8.763281,164.03307,-22.44268,176.54404Q-24.278498,178.22144,-25.52017,179.49141Q-25.695383,179.4784,-25.87418,179.47685L-25.906013,179.47685Q-28.318768,179.52513,-29.857841,181.43208Q-31.29061,183.3621,-30.725569,185.75615Q-30.605766,186.20409,-30.414534,186.61087L-30.414837,186.61087Q-30.39821,187.65616,-29.923058,188.77283Q-28.957584,190.72754,-26.815664,191.4107L-26.815933,191.4107L-22.706848,197.54803Q-21.757088,199.11414,-20.909578,201.2894Q-20.834866,201.56023,-20.762651,201.84259L-20.76286,201.84259Q-21.281292,202.3479,-21.767885,202.95787Q-24.3034,205.7117,-24.854815,211.39761Q-25.021442,213.89279,-24.402874,215.98389Q-24.19564,216.69719,-23.896088,217.37614Q-23.516638,218.22926,-23.003796,218.98442Q-22.661919,220.45013,-21.805176,221.88074Q-19.921112,224.95615,-16.566933,224.95615L-16.555222,224.95615Q-15.4440775,224.95615,-14.152142,224.61742Q-12.270145,224.16852,-11.356001,223.58687Q-10.38436,223.42902,-9.262178,223.03908Q-7.2252045,222.33646,-5.9444466,221.29475Q-2.81419,218.71793,-2.4123402,213.63635Q-2.1728172,211.17264,-3.2168007,207.45818Q-3.876545,204.92706,-5.304903,203.24144Q-6.0892544,202.3326,-7.109474,201.78378Q-8.190002,201.20926,-9.483585,201.07558Q-10.180381,200.53932,-10.861078,200.20715L-10.861187,200.20715Q-10.95575,199.77388,-11.058115,199.3194Q-11.782034,196.6388,-13.79612,192.96962L-18.206116,186.2594L-18.206299,186.2594Q-17.817553,185.85132,-17.56662,185.676Q-14.411276,182.67447,-3.9876308,173.36734L0.46901512,169.73206Q5.9139986,165.6318,9.22353,163.08028L9.223622,163.08028Q10.138201,165.10046,11.184145,167.89146L11.511427,168.98813L13.351187,175.9907Q13.760721,177.66516,14.171488,180.90068Q13.166224,181.52103,12.726835,181.95906Q12.108035,182.54424,11.697576,183.26233Q10.406773,184.20499,9.421217,185.41869Q8.834534,186.13683,8.417997,186.8283Q7.8644753,187.75009,7.5267105,188.6654Q6.9314084,189.48376,6.5775757,190.13947Q5.053039,192.7062,5.2158217,197.21222Q5.2910676,201.03387,7.2639837,203.34512Q9.367285,205.74274,12.653262,205.75278Q19.354118,205.34,22.138641,202.05736Q23.045885,201.08173,23.72453,199.85745L25.353346,196.21115Q26.17754,193.94391,26.098051,191.24266Q26.069927,189.91089,25.834934,188.49681Q25.734493,187.90952,25.608702,187.37578Q24.856892,184.64018,24.54804,182.96202Q23.546917,175.34964,23.251926,174.45145L23.25216,174.45145Q23.252316,174.45146,23.252466,174.45146Q23.34609,174.45146,21.099934,166.14072Q20.714104,164.7584,20.139395,163.2229Q18.622114,159.38976,17.343225,156.90683L17.343052,156.90683Q19.094614,154.60747,18.011875,151.79916Q16.664375,148.99173,13.49316,148.80385L13.416779,148.8035Q13.379743,148.80272,13.342332,148.80272 Z M206.52963,375.19067L207.81451,376.01483C207.05916,375.899,206.5768,375.60132,206.52757,375.19067 Z M246.80849,425.07095C246.89267,425.07095,246.97435,425.07193,247.05324,425.07394L247.05077,425.07394Q244.65912,427.05533,240.89372,430.63055Q229.758,441.20325,225.25482,446.95633Q222.34093,450.58304,218.79562,456.10944L201.42914,483.90744Q199.03683,487.53903,197.03737,490.2502L197.0354,490.2502L194.26283,490.3075C194.19078,490.30902,194.11913,490.31018,194.04793,490.31104C193.94963,490.31223,193.85226,490.3128,193.75609,490.3128C192.37091,490.3128,191.23294,490.19266,191.12445,490.02008C191.00296,489.82678,190.05801,489.57227,189.03711,489.43677C187.97803,489.34125,186.48428,489.0589,185.69662,488.8402C185.26587,488.7223,184.75279,488.66385,184.08449,488.66385C184.03719,488.66385,183.9891,488.66415,183.94022,488.66473C182.97498,488.67627,181.6965,488.80188,179.90573,489.03845C176.19568,489.50665,175.10632,489.8426,172.54907,491.1485C170.4183,492.24976,169.10788,493.25568,168.23114,494.40942C165.60104,497.8703,165.60269,497.94867,165.78085,506.55914C165.93716,514.1128,165.90372,514.3876,165.16006,514.403C164.41641,514.4184,164.38297,514.69324,164.45831,518.33307C164.51257,520.9554,164.3541,522.75977,163.98218,523.7072C163.68445,524.4573,163.43066,525.44147,163.43796,525.7937C163.44608,526.1852,163.33685,526.579,163.18182,526.6604C162.98694,526.70355,162.3778,527.5385,161.771,528.4908C161.16336,529.4039,160.32666,530.59595,159.86676,531.07526C159.44672,531.593,158.46313,533.2579,157.71118,534.7614C155.19016,539.70795,154.92664,540.2224,154.46756,540.7408C154.2384,541.0197,153.97256,541.4168,153.89911,541.65326C153.82797,541.8823,153.68213,541.98096,153.508,541.98303C153.50612,541.98303,153.50423,541.9831,153.50235,541.9831C153.0476,541.9831,152.40451,541.332,152.38992,540.6273C152.3786,540.07935,152.0086,539.2256,151.56665,538.6866C151.12485,538.14746,150.75797,537.4503,150.75232,537.17645C150.74588,536.8659,150.58717,536.6356,150.39372,536.6356L150.38649,536.6356C150.1903,536.6356,149.82835,536.0968,149.54254,535.4785C149.25604,534.8216,148.89503,534.3215,148.69879,534.3215L148.69298,534.3215C148.4988,534.3215,148.3368,533.9738,148.32793,533.5458C148.31898,533.11536,148.03532,532.6514,147.71977,532.5404C147.40346,532.3903,147.12135,532.0046,147.11327,531.6132C147.10515,531.22186,146.8582,530.63965,146.53935,530.3722C146.2589,530.06464,145.3231,528.3612,144.5031,526.577L143.02602,523.3185L142.5577,502.57593C142.32121,491.1474,141.91005,480.74072,141.68764,479.4532C141.46523,478.1656,140.96446,472.88995,140.54445,467.7302C140.1245,462.5704,139.53813,456.94412,139.26772,455.22696C138.95808,453.5104,138.82799,451.00717,138.91707,449.63492C138.98706,448.8588,139.0195,448.29895,138.99698,447.85947L138.99837,447.85947L139.17789,448.03778L137.31418,433.42334L137.3128,433.42334C137.44124,433.3786,137.58803,433.3364,137.75658,433.29202C138.92586,433.03293,140.86742,432.2487,142.37767,431.43442C142.76497,431.23062,143.30971,431.06277,143.58363,431.05704C143.85756,431.05142,144.78969,430.67966,145.60265,430.2321C147.84926,429.05014,151.67426,428.46207,159.77188,428.0986L166.93097,427.7939L168.4433,428.9764C169.66199,429.86905,170.19815,430.07556,171.8405,430.07556C171.9307,430.07556,172.02422,430.07492,172.12137,430.07376C172.21747,430.0726,172.31711,430.07095,172.42062,430.06882C174.22107,430.03152,175.2337,429.7756,176.16092,429.1691C176.89569,428.7231,177.4721,428.20224,177.46811,428.0065C177.46481,427.85,180.04395,427.6008,183.25092,427.41702C186.81015,427.22586,189.34918,426.93845,189.89075,426.61404C190.25,426.40457,190.68445,426.29776,191.42514,426.2889C191.45888,426.2885,191.49326,426.2883,191.52829,426.2883C192.21468,426.2883,193.1535,426.36615,194.50905,426.51852C195.63055,426.6244,196.86937,426.68054,197.9066,426.68054C198.01561,426.68054,198.1224,426.67993,198.22661,426.67868C198.93434,426.6702,199.52223,426.63278,199.87422,426.56406C200.77113,426.38882,202.64494,426.11514,204.05078,425.92935C204.9368,425.8254,206.56958,425.7645,208.52208,425.74106C209.14651,425.73358,209.80365,425.72992,210.47952,425.72992C215.42279,425.72992,221.3683,425.92535,222.85176,426.2451C223.83313,426.44922,225.97885,426.54022,228.51,426.54022C228.96005,426.54022,229.42229,426.53732,229.89232,426.5317C234.61766,426.475,240.13193,426.1401,241.98645,425.6533C243.3078,425.34653,245.28482,425.0884,246.66965,425.0718C246.71663,425.07123,246.76292,425.07095,246.80849,425.07095 Z M-18.0603,27.415016C-18.38622,27.415016,-18.704983,27.41688,-19.016006,27.420609C-21.074646,27.445297,-22.794273,27.551682,-24.006966,27.740158C-29.042091,28.509964,-32.734352,29.839401,-33.645355,31.228638C-33.79783,31.427597,-33.93897,32.17453,-33.925198,32.839783C-33.905766,33.779236,-33.54056,34.398163,-32.50431,35.277252C-31.712671,35.9225,-30.846037,36.450077,-30.528103,36.450077C-30.526968,36.450077,-30.52584,36.450073,-30.52472,36.450058L-30.520386,36.450012C-30.519484,36.45,-30.518578,36.449997,-30.517668,36.449997C-29.924755,36.449997,-27.929674,38.747402,-27.915932,39.41092C-27.888397,40.74167,-23.953453,41.678345,-16.898026,42.041367C-11.487999,42.360046,-9.129181,42.820267,-8.759087,43.674164C-8.637529,43.978916,-8.253896,44.202797,-7.832864,44.202797C-7.828128,44.202797,-7.8233867,44.20277,-7.8186417,44.202713C-7.8152313,44.202667,-7.811821,44.202606,-7.808403,44.202545C-7.806656,44.2025,-7.8049088,44.202484,-7.8031693,44.20247C-7.800776,44.20244,-7.7983856,44.202427,-7.795998,44.202427C-6.981848,44.202427,-6.5219088,45.871807,-6.6666336,48.290283L-6.7516785,49.858215L-9.884331,49.84485C-11.607277,49.841293,-13.647293,49.64856,-14.4357605,49.390915C-14.945212,49.23861,-15.361277,49.1596,-15.776406,49.1596C-15.789488,49.1596,-15.802568,49.15968,-15.815651,49.159836C-16.28643,49.165466,-16.759743,49.27295,-17.370369,49.490677C-20.326233,50.452515,-20.633705,50.732788,-20.597282,52.49411C-20.559572,54.31504,-19.37843,55.767075,-17.949812,55.767075C-17.941391,55.767075,-17.93296,55.767025,-17.924522,55.766922C-17.918388,55.766846,-17.912247,55.76674,-17.906105,55.766617C-17.90252,55.76654,-17.898941,55.766495,-17.89537,55.76645C-17.890438,55.76639,-17.885513,55.76636,-17.880596,55.76636C-17.382748,55.76636,-16.957514,56.06869,-16.793259,56.56584C-16.627792,56.99315,-15.910339,57.604828,-15.199364,57.903336C-14.450043,58.161774,-13.772522,58.7352,-13.647797,59.0851C-13.3640175,59.88124,-11.0311575,60.6723,-9.064154,60.6723C-9.0352,60.6723,-9.006327,60.67213,-8.977539,60.671783C-8.957115,60.67154,-8.936729,60.67122,-8.916397,60.670807C-8.901398,60.6705,-8.88649,60.670258,-8.871689,60.670074C-8.852199,60.66984,-8.832879,60.669724,-8.813726,60.669724C-7.898591,60.669724,-7.3642955,60.937836,-6.8218307,61.606384L-6.097046,62.57013L6.1198196,62.591476C12.297265,62.591484,15.3809395,62.609146,16.942312,62.725433L16.942142,62.725433Q17.348473,63.501163,17.957544,64.26727Q22.12186,68.97422,23.107254,70.55594Q23.928799,71.73305,24.784664,73.12187L24.784416,73.12187C24.834932,73.28447,24.864164,73.4087,24.865643,73.48019C24.869839,73.68304,25.067493,73.90338,25.345549,74.048134L25.345295,74.048134Q26.308311,75.66722,27.313667,77.547485Q29.182102,81.07109,30.746635,84.63701L37.935905,102.38574Q40.31894,107.94715,43.246834,113.80281Q54.937443,136.51587,61.226963,146.63673L61.22635,146.63673C61.228188,146.68184,61.229572,146.72646,61.230484,146.77058C61.243275,147.38948,61.452232,147.6654,61.890747,147.69252L61.890125,147.69252Q62.350903,148.41782,62.7798,149.06879L62.77917,149.06879C62.856266,149.62506,62.926765,150.39899,63.011414,151.47148C63.37047,155.57545,64.05174,158.22395,65.437546,160.8579C66.00897,161.98155,66.31044,163.3066,66.34282,164.87209C66.42894,167.14128,66.43057,167.21962,68.05792,168.28218C68.97029,168.85072,70.35716,169.64424,71.10887,170.02016C71.85979,170.3571,73.48636,171.38069,74.67993,172.29576C75.87271,173.17162,77.22043,173.96596,77.61342,174.03612C78.04561,174.10548,78.526566,174.64372,78.69693,175.30595C78.90558,175.92796,79.39307,176.7794,79.79411,177.2408C80.23357,177.66258,80.87927,178.58888,81.206116,179.2477C81.5721,179.90587,82.13626,180.67726,82.49417,180.94386C82.85295,181.24974,83.4969,182.09785,83.90454,182.87251C84.31207,183.6472,85.31972,185.03587,86.161896,185.99736C86.964096,186.9204,87.93259,188.31001,88.26103,189.04723C88.589554,189.78435,90.01932,192.65242,91.44667,195.4027C93.935425,200.24574,94.92819,202.80937,96.99579,210.01033C99.063416,217.21132,100.06914,220.40114,100.81415,222.34358C101.22902,223.47054,102.6723,228.88315,103.99901,234.33755L106.35893,244.31247L106.54956,251.6305C106.75633,259.73145,106.47778,263.30032,104.91658,273.00403C104.364914,276.6178,103.74786,280.85928,103.58455,282.42886C102.71008,291.257,102.60397,291.80728,100.10562,297.84985C95.93025,307.99908,95.7043,308.43445,93.44453,310.86963C92.25721,312.14722,91.30709,313.5374,91.31521,313.9287C91.32494,314.39847,91.05659,314.6779,90.58695,314.68768C90.156425,314.69656,89.69404,315.0586,89.58549,315.49152C89.47704,315.92468,89.17118,316.28317,88.97549,316.28726C88.77978,316.29132,88.62972,316.60767,88.637825,316.99908C88.64675,317.42966,88.22674,317.9473,87.68363,318.1935C87.14059,318.43967,86.71981,318.9182,86.727104,319.27045C86.73684,319.74008,86.23043,319.86816,84.35181,319.90707C80.90762,319.9783,79.709694,320.7471,79.75585,322.97806C79.78742,324.50446,80.46498,325.0777,82.54497,325.30875C83.565765,325.44412,84.119385,325.70673,84.12668,326.05905C84.13316,326.37204,84.620636,327.22342,85.18395,327.95572C86.02587,328.98282,86.46089,329.23645,87.549286,329.23645C87.579056,329.23645,87.609314,329.23627,87.64008,329.2359C87.66517,329.2356,87.690605,329.23517,87.71638,329.23465C87.743645,329.23404,87.7705,329.23364,87.79693,329.2333C87.82901,329.2329,87.86048,329.23273,87.89136,329.23273C88.893394,329.23273,89.26643,329.4399,89.61526,330.17422C89.98295,330.91052,90.458244,331.17493,92.14605,331.37482C93.284325,331.50784,93.91454,331.69067,93.56396,331.7762C93.09591,331.86414,92.87002,332.2995,92.88619,333.0822C92.90157,333.82584,92.71398,334.2214,92.32261,334.22955C92.00948,334.236,91.74122,334.51563,91.7477,334.82874C91.75417,335.1419,91.60325,335.4189,91.40754,335.423C91.21189,335.42706,90.86933,335.90414,90.64669,336.49594C90.2396,337.63992,89.48519,339.02603,89.06197,339.38696C88.94698,339.507,88.383385,340.6541,87.78388,341.95877C87.22355,343.26233,86.65995,344.4097,86.505806,344.53027C86.04427,344.93137,84.58188,348.0549,84.5932,348.60284C84.59967,348.91595,84.33298,349.27393,84.0231,349.4369C83.71243,349.5608,83.449005,350.07532,83.45955,350.584C83.47089,351.13196,83.20982,351.76385,82.90239,352.0444C82.59502,352.32474,82.33235,352.8784,82.34129,353.309C82.35016,353.73956,82.01413,354.5295,81.59494,355.08633C81.175705,355.64322,80.84131,356.5115,80.85181,357.0203C80.86156,357.49002,80.71556,358.0021,80.52229,358.12357C80.3298,358.2841,80.07286,359.11166,79.93577,360.0543C79.797844,360.95767,79.42913,362.06174,79.16407,362.49783C78.859825,362.93497,78.63877,363.6052,78.64689,363.99655C78.65499,364.3879,78.43717,365.21463,78.135445,365.76907C77.87362,366.36172,77.02686,368.96365,76.258446,371.56375C75.48995,374.1639,74.64489,376.8439,74.385475,377.55417C74.0861,378.22592,73.87316,379.28757,73.886116,379.9138C73.89829,380.50082,73.64213,381.36752,73.33709,381.7654C73.03289,382.20236,72.77349,382.91263,72.78326,383.3823C72.792946,383.85196,72.64695,384.36398,72.45609,384.6028C71.9578,385.12216,70.92428,388.1586,70.53756,390.28104C70.3621,391.2634,70.07244,392.405,69.88566,392.8395C69.25025,394.3013,68.45214,404.929,68.36712,412.1744C68.35909,417.4606,68.5445,420.74582,69.0528,424.4943C69.46418,427.3442,70.01403,431.209,70.25024,433.16208C70.52473,435.07498,71.06568,438.50943,71.46485,440.77213C71.82496,443.03574,72.14428,445.2217,72.15316,445.6523C72.12298,446.0837,72.03959,447.72995,71.955376,449.33698L71.77967,452.1989L73.2985,453.69464C74.098305,454.50024,75.2479,455.18134,75.79745,455.24823C75.89128,455.25876,75.9787,455.27167,76.0605,455.2894L76.05974,455.2894Q78.33375,465.82565,80.14157,473.6087L80.14077,473.6087C80.236435,474.20276,80.329254,474.60455,80.44061,474.8875L80.43981,474.8875Q83.89526,489.64243,85.57186,493.8918Q87.50296,499.76733,90.88487,507.81702Q104.745636,538.9645,106.70493,544.1233Q110.9382,554.47955,113.96687,563.2383Q117.24814,572.63855,121.197235,586.22156L139.52937,651.2467Q145.4762,671.32556,150.86078,688.015Q163.83331,728.5842,170.78394,739.27673Q172.76682,742.5534,175.11845,745.05676L175.1167,745.05676C175.55219,745.67596,176.3264,746.4646,177.6623,747.70557C179.33415,749.2714,181.03929,750.56415,181.43752,750.56415L181.43967,750.56415L181.45013,750.564C181.45418,750.56396,181.4582,750.56396,181.46223,750.56396C181.88205,750.56396,182.19061,750.82776,182.19696,751.13574C182.20334,751.4437,182.54982,751.7068,182.97096,751.7068C182.975,751.7068,182.97906,751.7068,182.98312,751.7067L182.99188,751.70667C183.42242,751.69775,183.7706,751.4947,183.76654,751.2991C183.76288,751.1232,184.19672,751.03503,185.03671,751.02496C185.0912,751.0243,185.14738,751.024,185.20528,751.024C185.64528,751.024,186.18347,751.0428,186.81616,751.07935C187.16074,751.1028,187.52255,751.11395,187.89597,751.11395C187.9724,751.11395,188.04932,751.11346,188.12668,751.11255C191.54178,751.0716,195.80466,750.13794,196.68253,749.1523C197.02753,748.7927,197.6662,747.4874,198.15067,746.3027C198.8562,744.4478,198.91986,743.7417,198.67404,741.3192C198.48502,739.75684,198.09152,737.76807,197.75977,736.8744C197.42804,735.98065,197.12653,734.6556,197.11111,733.912C197.09573,733.1684,196.83661,731.9991,196.50974,731.3402C193.59479,724.8224,192.40988,720.53986,192.40234,716.3895C192.40988,714.86224,192.03192,711.7377,191.55362,709.43744C191.03696,707.1772,190.63132,704.60126,190.61432,703.7795C190.59729,702.9576,190.2844,701.08453,189.9014,699.6046C189.22012,696.95605,189.3078,693.62604,190.05148,693.61066C190.2471,693.6067,190.39325,693.0946,190.37946,692.4294C190.36163,691.56824,190.62668,691.132,191.478,690.64465C192.09766,690.3185,192.94177,689.4788,193.35776,688.7653C193.77368,688.052,194.69434,687.13245,195.35162,686.7273C196.5886,685.9577,196.77704,685.6014,198.21524,681.30365C199.21121,678.34644,199.2948,674.8207,198.41034,673.7035C198.08829,673.2795,197.79968,672.5807,197.75168,672.15094C197.68668,670.8993,195.58011,667.49725,194.59198,667.04785C194.11746,666.82263,193.43994,666.2493,193.11713,665.7862C192.79744,665.3653,192.28572,664.987,192.01025,664.987L192.00668,664.987L192.00241,664.98706L191.99985,664.98706C191.72269,664.98706,191.01088,664.4559,190.33527,663.80774C189.69531,663.1553,188.54251,662.3178,187.79156,661.98096C186.09238,661.233,184.30771,660.13434,183.19162,659.17847C182.23517,658.376,180.61191,657.50916,177.8064,656.2751C176.77899,655.82635,175.70934,655.22205,175.46806,654.9138C175.23094,654.61096,174.73099,654.3891,174.34236,654.3891C174.3383,654.3891,174.33424,654.3891,174.33022,654.38916L174.3134,654.38934C174.30975,654.3894,174.3061,654.3894,174.30249,654.3894C173.7698,654.3894,173.60475,653.914,173.3762,652.2161C173.23445,651.04443,172.93535,649.8368,172.73485,649.606C172.53343,649.3362,172.16792,644.91907,171.94362,639.7553C171.63484,632.4005,171.39052,630.0563,170.89738,628.93097C170.44661,627.96136,170.21687,626.3218,170.1675,623.93427C170.127,621.9772,169.92183,619.6322,169.66841,618.7369C169.45409,617.84064,169.00627,613.2297,168.67342,608.4988C168.37975,603.767,167.8928,599.15674,167.60014,598.2622C167.22124,596.978,167.20747,596.31256,167.57457,595.1304C167.94081,593.90894,167.92702,593.24347,167.54643,591.88104C167.25307,590.9473,166.83794,586.02234,166.53688,580.9385C166.2759,575.8929,165.82155,570.96875,165.56648,569.9951C164.59851,566.6906,163.68584,564.1663,163.41068,564.1663L163.40858,564.1663C163.25204,564.1663,163.0042,563.5071,162.83113,562.6905C162.65834,561.9109,162.28667,560.97894,161.96623,560.6331C161.40532,560.01825,161.5352,558.72345,162.16136,558.7105C162.4745,558.7039,164.24492,557.2186,165.89464,555.57916C166.39375,555.09894,166.89445,554.69696,166.97273,554.6954C167.09007,554.69293,167.705,554.132,168.39653,553.4912C173.96391,548.16846,175.38527,546.84674,176.3899,546.1995C177.04721,545.7945,177.5462,545.3143,177.54138,545.0794C177.5373,544.88367,177.76816,544.68317,178.04208,544.67755C178.31601,544.6718,178.975,544.345,179.47647,543.98224C179.98166,543.6054,180.72955,543.36066,181.20905,543.3549C181.21477,543.35486,181.22046,543.3548,181.2261,543.3548C181.25293,543.3548,181.27887,543.3555,181.30383,543.3571C181.3612,543.36316,181.41653,543.3662,181.47008,543.3662C181.47548,543.3662,181.48087,543.36615,181.48624,543.3661C182.00998,543.3598,182.36288,543.0528,182.76929,542.2696C183.06866,541.5978,185.32434,538.96686,187.73822,536.411C190.15213,533.855,192.21617,531.4238,192.32549,531.0301C192.47392,530.63544,192.70146,530.2784,192.89717,530.27435C193.09285,530.2702,193.7029,529.4744,194.26976,528.4839C194.79738,527.4941,195.3683,526.6992,195.52483,526.6959C195.68135,526.6926,196.2906,525.85785,196.81667,524.7898C197.79622,522.9292,198.78627,521.5773,200.7386,519.42255C201.2744,518.82416,202.41939,517.3909,203.29613,516.2372C205.69626,513.01587,206.577,512.05786,210.1798,508.3028C212.01875,506.34607,213.7093,504.78412,213.90492,504.78003C214.13982,504.77515,214.29066,504.49805,214.2842,504.18494C214.2777,503.87177,214.50688,503.59296,214.7809,503.58722C215.0157,503.5824,215.78795,503.05743,216.4004,502.3791C218.27931,500.46075,220.66136,498.258,221.97026,497.1737C222.6642,496.65045,224.16225,495.2489,225.27379,494.09033C226.42534,492.97015,227.57756,491.8891,227.88661,491.687C228.1573,491.52472,229.77202,490.0818,231.42256,488.48138C233.11226,486.8802,235.49434,484.6773,236.76317,483.5547C238.03291,482.47125,239.3401,481.30872,239.72502,480.98755C240.0708,480.66705,240.72888,480.3011,241.15613,480.13562C241.62256,479.96933,242.43393,479.44363,243.0097,478.8834C243.54706,478.3633,244.9342,477.2773,246.05383,476.51028C247.17264,475.70395,248.3298,474.85782,248.59808,474.57822C248.86716,474.33768,249.52286,473.85428,250.06506,473.56888C250.60739,473.2836,251.76212,472.3201,252.68439,471.47873C253.60596,470.5981,254.53064,469.87418,254.72638,469.87027C254.96118,469.8654,256.04083,469.0599,257.1165,468.0587C258.23123,467.05673,259.3109,466.2513,259.58493,466.24557C260.01544,466.23666,262.54916,463.7958,264.00085,462.04294C264.91666,460.88858,266.49213,459.44632,266.8444,459.43906C267.00095,459.43582,268.2715,458.3914,269.65454,457.1099C271.03757,455.82828,272.73218,454.46194,273.34946,454.01852C275.01062,452.9268,283.19482,445.39627,283.4167,444.76523C283.52765,444.4498,283.8749,444.2075,284.18805,444.20108C284.8535,444.18735,295.43137,433.1224,295.41757,432.45706C295.4119,432.18307,295.94528,431.46732,296.59683,430.78824C297.24927,430.14816,298.73923,428.35538,299.92175,426.843C301.10345,425.2914,302.24847,423.85812,302.4401,423.65836C302.97583,423.13483,303.65726,421.7291,304.25153,420.12854L304.2485,420.12854Q305.95267,416.85025,306.0111,414.38974Q306.41998,405.6755,297.93542,400.0301Q294.73813,397.71286,281.26904,392.56876Q262.67682,385.472,255.33853,383.59973Q243.21005,380.0558,206.45169,374.8909L206.44963,374.8909C206.32108,374.62305,206.03906,374.2561,205.71643,373.9748C205.27783,373.5924,204.9151,373.09094,204.90942,372.8169C204.90378,372.54297,204.54099,372.0415,204.10233,371.659C203.73096,371.33664,203.37811,371.16806,202.82204,371.16806C202.81079,371.16806,202.79948,371.16812,202.78807,371.16827C202.09157,371.17664,201.07866,371.44208,199.33238,371.99274C198.56343,372.21118,198.0609,372.32892,197.57204,372.33478C197.55927,372.33493,197.5465,372.33502,197.53372,372.33502C196.99648,372.33502,196.46776,372.1993,195.61098,371.91315C194.59206,371.5967,192.89203,371.33044,191.6843,371.33044C191.65254,371.33044,191.62111,371.33063,191.59006,371.331C191.56879,371.33124,191.54767,371.3316,191.52673,371.33203C191.49579,371.33264,191.46494,371.3332,191.43414,371.33356C191.3917,371.33408,191.3494,371.33432,191.30725,371.33432C190.10316,371.33432,189.02899,371.12863,188.5792,370.8056C188.14136,370.46234,186.92404,370.2918,185.5534,370.28094C185.52798,370.28143,185.50241,370.28186,185.47665,370.28217C185.43938,370.28262,185.40178,370.28284,185.36389,370.28284C184.13913,370.28284,182.61226,370.05212,181.86224,369.77002C181.12393,369.47705,180.15877,369.2265,179.75537,369.2265C179.75159,369.2265,179.74785,369.22653,179.74417,369.22656C179.74161,369.22656,179.73904,369.22662,179.73654,369.22668C179.73312,369.22675,179.72974,369.2268,179.72632,369.2268C179.7216,369.22687,179.71689,369.2269,179.71219,369.2269C179.29408,369.2269,178.98804,369.0021,178.98245,368.73328C178.9776,368.4984,178.33359,367.65033,177.57458,366.92206C176.81552,366.19385,176.17465,365.50226,176.17145,365.34564C176.16818,365.1892,175.00562,363.88202,173.56595,362.42383C172.1661,361.0041,170.96118,359.54114,170.95389,359.18884C170.9466,358.83655,171.28424,358.12476,171.70428,357.60712C172.10684,357.1209,172.30997,356.8919,172.47336,356.88995L172.4755,356.88995C172.60567,356.88995,172.711,357.0347,172.87277,357.30884C173.11345,357.6917,173.54465,357.99393,173.81902,357.99393C173.8205,357.99393,173.82198,357.99393,173.82346,357.9939L173.82773,357.99384L173.82924,357.99384C174.0656,357.99384,174.62454,358.6461,174.99243,359.4577C175.3617,360.27228,176.61224,362.04755,177.69647,363.35645C178.81995,364.66443,179.70773,365.93823,179.71176,366.13397C179.72543,366.7943,181.29308,368.00092,182.1967,368.00092C182.20071,368.00092,182.20473,368.00092,182.20871,368.00085C182.21155,368.0008,182.21436,368.0008,182.2172,368.00073C182.2208,368.0006,182.22443,368.0006,182.22812,368.00055C182.2333,368.0005,182.23856,368.00046,182.24385,368.00046C182.72043,368.00046,183.60443,368.25192,184.22534,368.54645C184.97289,368.91852,185.65312,369.1017,186.17345,369.1017C186.18214,369.1017,186.1908,369.10165,186.1994,369.10156C186.82056,369.09406,187.20688,368.82013,187.19586,368.28925C187.18695,367.85864,187.01663,367.1966,186.81284,366.80927C186.60986,366.461,186.15259,365.1784,185.77441,363.93317C185.22922,362.1825,185.1771,361.55707,185.51236,360.72797C185.77493,360.17426,186.07837,359.69812,186.19577,359.69568C186.31238,359.6541,188.62073,359.5672,191.32047,359.47217C196.13213,359.25507,198.7047,358.69287,201.57097,357.1848C202.19075,356.85876,203.00778,356.60687,203.3992,356.5987C203.79056,356.59064,204.2561,356.3852,204.36868,356.1479C204.6257,355.71027,206.00937,355.1079,206.59164,355.10095C206.595,355.10092,206.59834,355.1009,206.60164,355.1009C206.6999,355.1009,206.77426,355.1185,206.815,355.1576C206.93399,355.23346,206.55396,355.7895,206.01657,356.30963C204.79852,357.49994,204.66322,358.89877,205.76839,358.89877C205.77365,358.89877,205.77895,358.89874,205.78427,358.89868C205.78818,358.89862,205.79211,358.89856,205.79605,358.89844C206.73538,358.8791,210.06801,357.2047,210.05913,356.77417C210.0559,356.61755,210.20927,356.45782,210.40492,356.45367C210.60066,356.4497,211.80019,355.75922,213.03468,354.87225C215.54393,353.1366,217.60881,350.7446,220.1844,346.54086C221.66216,344.16098,221.92241,343.48987,221.70482,342.43732C221.572,341.69608,221.70021,340.3229,222.029,339.1808C222.31938,338.07828,222.72267,334.8592,222.85841,331.9588C222.99504,329.09772,223.17964,326.66626,223.25545,326.54724C223.31465,326.48553,223.39876,326.45676,223.49913,326.45554C223.50133,326.4555,223.50352,326.4555,223.50572,326.4555C223.99146,326.4555,224.84866,327.0893,225.12093,327.76172C225.69884,329.19855,226.13042,333.02673,225.73903,333.03485C225.50423,333.0397,225.26744,334.8457,225.19545,337.03995C225.00053,342.76065,222.57774,350.56348,220.31395,352.80307C219.81572,353.32236,219.39821,353.95752,219.40468,354.2705C219.41115,354.58374,219.14766,355.0982,218.84178,355.4569C213.90681,360.95746,212.49939,363.80402,214.69211,363.80402C214.7024,363.80402,214.71277,363.80396,214.72322,363.80383C214.73097,363.80377,214.73878,363.80365,214.74663,363.80353C216.8993,363.7589,221.79512,361.9348,224.30421,360.1991C227.23824,358.1806,231.15266,354.3407,231.13484,353.47958C231.12755,353.12744,231.54836,352.64883,232.09145,352.4027C232.75032,352.0758,233.16792,351.44067,233.41914,350.33917C233.63536,349.43408,234.11494,348.0146,234.52779,347.14462C235.68837,344.5754,235.95534,342.3381,235.87703,336.66226C235.76366,331.18283,235.01485,327.16528,233.9811,326.4035C233.70226,326.17453,233.13402,325.20743,232.72078,324.15866C232.30836,323.1492,231.73775,322.06464,231.41893,321.79715C231.09932,321.49057,230.85481,321.02576,230.84993,320.791C230.83699,320.1647,229.21992,315.81265,228.31834,313.87372C227.92001,313.08322,227.67497,312.25888,227.70366,311.94418L227.70595,311.94418Q237.51599,314.06128,258.43262,317.32184L258.43002,317.32184C258.92407,317.48816,259.32928,317.65274,259.6065,317.8074C260.518,318.33664,262.01013,318.5408,265.30188,318.66837C266.24268,318.69366,267.2124,318.74112,268.09802,318.80008L268.09534,318.80008Q270.08597,319.09946,272.15735,319.40714L272.15463,319.40714C273.64294,319.97113,275.49326,321.0929,275.5019,321.51135C275.5116,321.97974,279.80466,324.46063,280.56778,324.46063C280.56918,324.46063,280.57056,324.46063,280.5719,324.4606L280.57477,324.46054C280.9662,324.4525,281.97162,323.8442,282.8181,323.12195C284.28506,321.8277,286.01663,321.0969,287.5365,321.07867C287.5559,321.07843,287.5753,321.07834,287.59464,321.07834C288.12506,321.07834,288.62878,321.16602,289.08536,321.34775C289.79633,321.64624,290.51132,322.14044,290.63602,322.4905C290.82095,322.9123,291.2158,323.10965,291.70975,323.10965C291.7172,323.10965,291.72467,323.10962,291.73218,323.10953C292.5533,323.09967,293.64056,322.552,294.49387,321.58844L295.79535,320.15182L298.8538,320.36243C304.53946,320.754,312.75012,322.072,319.00647,323.54782C322.27264,324.3416,330.40424,325.62216,335.70175,326.17816C354.10712,328.1857,356.73428,328.3662,368.64044,328.51144C380.42935,328.65897,383.21216,328.7972,385.8865,329.36832C388.56165,329.97858,388.64078,330.01608,387.87012,330.61945C387.3304,331.02216,387.26016,331.4152,387.47775,332.46777C387.64963,333.20807,387.83054,334.3791,387.84512,335.0836C387.82065,335.789,388.1164,336.83994,388.44165,337.4206C388.7277,338.0021,389.0196,338.85742,389.02844,339.28784C389.03815,339.75754,389.4074,340.57224,389.8493,341.1112C390.3303,341.64944,391.02078,342.849,391.47076,343.77945C392.5232,346.07663,393.66476,347.1512,395.0116,347.1512C395.02176,347.1512,395.03192,347.15115,395.0421,347.15103C395.04956,347.15094,395.057,347.15082,395.06442,347.15067C395.72986,347.1369,396.23532,346.96988,396.23206,346.8133C396.22806,346.6176,397.34933,345.9288,398.70465,345.19595C401.45514,343.7686,401.9158,343.32834,402.08325,341.95444C402.1477,341.28745,402.53094,340.888,403.34802,340.6361C403.81604,340.495,404.24265,340.42212,404.62943,340.41748C404.64255,340.41733,404.65564,340.41724,404.6687,340.41724C405.64468,340.41724,406.36432,340.85773,406.85562,341.7382C408.52264,344.71872,415.63837,351.776,418.68927,353.51398C419.4419,353.92914,420.59155,354.61014,421.26495,354.98782C424.0716,356.64777,430.7622,359.70715,431.6143,359.70715C431.61566,359.70715,431.61703,359.70715,431.6184,359.70712L431.62122,359.70712C433.7738,359.6625,434.6214,357.09988,433.38983,354.34537C432.8557,353.1425,432.8518,352.94687,433.3957,352.73984C433.4585,352.7174,433.5329,352.70615,433.6162,352.70514C433.62027,352.70508,433.62436,352.70508,433.62848,352.70508C434.0088,352.70508,434.56717,352.9141,435.05078,353.2537C435.64603,353.6329,437.1494,354.38495,438.41162,354.8288C441.17474,355.90698,442.057,356.9068,442.7431,359.7901C443.60602,363.6486,446.05023,366.33896,449.03275,366.66873C449.27274,366.6947,449.48053,366.70908,449.66528,366.70908C449.67905,366.70908,449.6927,366.70898,449.7062,366.70883C450.43082,366.70016,450.7997,366.45792,451.40317,365.79745C452.012,365.1417,452.40793,364.82022,452.95737,364.81363C452.96313,364.81357,452.9689,364.81354,452.9747,364.81354C453.4594,364.81354,454.06516,365.05548,455.03915,365.52652C455.84244,365.91293,456.64447,366.09332,457.38342,366.09332C457.40152,366.09332,457.4196,366.0932,457.4376,366.093C459.32828,366.07034,460.79227,364.861,460.7797,362.90176C460.73843,360.90564,459.27835,358.46906,454.2891,351.9942C450.79007,347.52466,446.03632,342.96353,442.5052,340.72647C441.6328,340.19635,439.05145,338.44843,436.749,336.92993C430.59357,332.7502,427.81586,330.9674,425.9569,330.0661C425.0086,329.65518,423.02734,328.5214,421.4815,327.61365C418.3092,325.6825,408.77878,321.1418,405.26877,319.92245C403.9667,319.44037,402.38098,318.49417,401.70178,317.8427C399.8174,315.924,398.9798,315.6126,394.53354,315.6126C394.35532,315.6126,394.17126,315.6131,393.98114,315.614C393.8809,315.61453,393.78085,315.61478,393.6812,315.61478C391.29025,315.61478,389.10568,315.47043,388.68777,315.25363C388.2523,315.02768,386.95352,314.70215,385.7736,314.45258C379.2491,313.2563,376.41736,312.64917,369.84485,311.0233C367.68088,310.51974,364.218,309.69092,362.17303,309.2633C360.12738,308.79672,356.74194,307.92703,354.69385,307.3429C341.06216,303.27878,334.09564,301.5435,320.05603,298.584C317.146,297.9787,313.28854,297.0013,311.51437,296.41147C309.7011,295.82272,307.1033,295.17157,305.72864,294.96506C304.3547,294.7978,302.58377,294.36444,301.79453,294.06763C300.4126,293.50882,300.37177,293.43137,300.3288,291.35696C300.27417,288.7168,299.42972,287.70215,297.2707,287.70215C297.2426,287.70215,297.2143,287.70233,297.18576,287.70267C297.16425,287.7029,297.14264,287.7033,297.1209,287.70374C297.09665,287.70425,297.07257,287.70462,297.04877,287.70493C297.01727,287.7053,296.98618,287.7055,296.95547,287.7055C295.99838,287.7055,295.42715,287.522,295.30835,287.15396C294.99466,286.44278,293.40826,286.03198,291.10962,286.03198C291.03128,286.03198,290.95212,286.03247,290.87216,286.03342C290.226,286.04117,289.52734,286.08038,288.78784,286.15326C288.13788,286.21625,287.55136,286.25235,287.01804,286.25873C286.96088,286.2594,286.90436,286.25977,286.8484,286.25977C284.5388,286.25977,283.24893,285.67252,282.0921,284.2558C281.69104,283.79422,280.38083,282.92084,279.15625,282.39792C278.04785,281.89972,277.09506,281.65488,276.30194,281.65488C276.28668,281.65488,276.27145,281.65497,276.2563,281.65515C275.4028,281.6654,274.73724,281.9634,274.2647,282.53833C274.03638,282.85623,272.87268,283.3894,271.74496,283.76514C270.56952,284.1221,268.59674,284.31244,266.61313,284.3362C266.47144,284.33792,266.3297,284.33878,266.1882,284.33878C264.1137,284.33878,262.08896,284.15616,261.017,283.7912C260.26688,283.4936,258.8873,283.05222,257.98062,282.75787C256.20728,282.20712,255.80374,281.62823,256.9706,281.25165C257.32047,281.12708,261.11798,279.20816,265.37863,276.96628C269.63925,274.72476,273.32184,272.92566,273.59586,272.91995C273.83066,272.91507,274.56534,272.4691,275.18024,271.9082C275.8343,271.3465,276.91882,270.77597,277.58084,270.60556C278.39957,270.4321,279.0552,269.94867,279.47116,269.2352C279.81046,268.6017,280.34787,268.0814,280.7001,268.07416C281.75677,268.0523,286.73395,262.585,286.97864,261.1705C287.1207,260.4627,287.56607,259.27878,288.0203,258.5255C288.6614,257.33752,288.76013,256.43497,288.70694,251.97232C288.6505,247.35312,288.55927,246.72867,287.79456,245.72629C287.3519,245.14816,286.81973,244.02365,286.64612,243.20505C286.51248,242.42477,285.85388,240.8722,285.20337,239.7109C284.5928,238.5881,283.93668,237.1529,283.76712,236.52988C283.59683,235.86774,283.10696,234.89908,282.66342,234.2817C282.22076,233.70357,281.7284,232.61745,281.5956,231.87624C281.4612,231.05672,280.9353,230.24544,280.2595,229.75032C279.5045,229.21767,279.05862,228.48308,278.8402,227.39119C278.62024,226.2212,278.01376,225.2939,276.53403,223.79753C275.45456,222.72346,274.05075,221.10805,273.44583,220.25914C272.84097,219.41023,271.5161,217.83223,270.4767,216.7965C269.4364,215.72173,267.39343,213.493,265.98785,211.79918C264.54327,210.10619,261.77307,206.79631,259.80667,204.48766C257.83948,202.13985,255.14673,198.78902,253.85696,197.01463L251.51889,193.77394L251.5268,190.36728C251.51733,188.01816,251.72134,186.52594,252.1333,185.61694C253.22131,183.32346,255.5008,179.94794,256.50217,179.1442C258.54248,177.45749,265.62762,169.79294,266.19122,168.64575C266.5297,167.97308,267.1554,166.0416,267.5511,164.34973C269.14194,157.9736,266.84634,149.21135,261.7699,142.30745C260.159,140.14815,256.68182,136.73515,254.69656,135.40575C253.98233,134.95076,253.34555,134.45485,253.22571,134.33992C253.1051,134.1859,251.95227,133.34822,250.6412,132.43553C247.82031,130.45807,247.66058,130.30469,247.6282,128.73914C247.59256,127.017,246.52872,124.80704,245.41824,124.12537C244.90219,123.78372,243.17188,123.42792,241.56485,123.3436C239.99686,123.25864,238.46481,123.01633,238.22516,122.786255C237.94711,122.59616,237.69443,121.74014,237.67743,120.91818C237.64987,119.5874,237.36624,119.12338,235.76907,117.62952C234.73212,116.71118,233.42181,115.837616,232.87149,115.73157C232.3211,115.62561,231.05972,115.22092,230.0333,114.811584C229.01749,114.44466,227.92561,114.11801,227.60051,114.11801C227.59863,114.11801,227.59677,114.11802,227.59494,114.11804C227.59369,114.11807,227.59247,114.11807,227.59125,114.1181L227.58939,114.1181C227.58852,114.11811,227.58763,114.11812,227.58675,114.11812C227.22604,114.11812,225.68736,113.252495,224.10657,112.23239C222.52228,111.1716,221.09854,110.341125,220.89735,110.341125C220.89706,110.341125,220.89679,110.34113,220.8965,110.34113L220.89494,110.34113C220.8945,110.34114,220.89406,110.34114,220.89362,110.34114C220.69377,110.34114,219.86372,109.81191,219.03206,109.20493C218.20047,108.5597,217.37204,108.069756,217.13254,108.069756C217.13185,108.069756,217.13116,108.06976,217.13048,108.06977L217.12807,108.0698C217.12758,108.06981,217.12709,108.06981,217.12659,108.06981C217.09833,108.06981,217.05116,108.06045,216.98758,108.04262L216.98541,108.04262Q210.37215,104.00572,204.3866,104.00572Q201.7883,104.00572,199.30829,104.766426Q194.52434,105.8726,186.80325,109.341286Q170.65305,116.611855,167.65625,119.03888Q163.29462,120.62593,162.02669,121.34767L161.99915,121.36214Q159.03697,122.68945,157.39926,126.49925L151.83228,130.63513Q151.04025,130.96216,150.69075,131.23637Q150.18465,131.61453,149.72903,132.42058Q148.42928,133.84023,145.71027,149.96393L141.87955,152.92302L141.87813,152.92302C141.31793,153.1341,140.91003,153.4047,140.54755,153.78247C140.50348,153.8284,140.45976,153.87253,140.41621,153.9149L140.41481,153.9149L135.20457,155.11446L135.20322,155.11446C134.94746,155.14993,134.7596,155.19255,134.62186,155.24893L134.62051,155.24893L134.43672,155.29124Q129.91049,158.70844,128.87735,160.36986Q127.30382,162.2923,128.38728,166.38918Q123.64072,175.82536,118.79753,184.47736L118.79753,184.47736C118.57131,184.45204,118.39014,184.27373,118.38282,183.92094C118.37553,183.56868,118.133415,183.22133,117.81788,183.11049C117.50239,182.9995,116.781685,182.2314,116.21674,181.42073C115.6518,180.61018,114.68731,179.41628,114.08729,178.80214C113.44814,178.18901,112.68507,177.265,112.362236,176.80177C112.0386,176.29951,111.316315,175.45314,110.75699,174.91643C110.197754,174.37971,109.27248,173.18526,108.665955,172.25795C108.062225,171.37292,107.38405,170.64496,107.14706,170.64496C107.14659,170.64496,107.14613,170.64497,107.145676,170.64497L107.14264,170.645C107.14166,170.64502,107.140686,170.64502,107.13971,170.64502C106.945595,170.64502,106.74834,170.4159,106.74274,170.14433C106.73706,169.87029,106.21208,169.09792,105.5721,168.44563C104.9321,167.79317,103.99875,166.20723,103.463974,164.96529C102.92926,163.72325,102.31549,162.44392,102.03505,162.13655C101.79373,161.82845,101.40018,159.83951,101.239044,157.72836C101.03955,155.65747,100.6028,153.47372,100.27675,152.85397C99.99063,152.27249,99.70209,151.57361,99.697235,151.33893C99.69153,151.065,99.15524,149.74475,98.46155,148.38858C97.3578,146.14041,97.078156,145.87228,95.1042,145.09088C93.36752,144.4219,92.84981,144.00186,92.355865,142.83759C91.34334,140.54231,89.89641,139.32176,88.20565,139.32176C88.19159,139.32176,88.17751,139.32185,88.16342,139.32202C88.15317,139.32214,88.1429,139.3223,88.132645,139.32251C88.02493,139.3247,87.918945,139.32648,87.81465,139.32773C87.6829,139.32932,87.553856,139.33011,87.4275,139.33011C85.95807,139.33011,84.851295,139.22258,84.0605,138.99162L84.05966,138.99162Q72.23717,106.41675,62.361416,92.62165Q56.342827,83.28266,41.267197,66.864395L41.26678,66.864395C40.396873,65.40851,38.605125,63.244522,36.514286,61.179436C35.394886,60.06704,34.110905,58.566566,33.62424,57.754387C33.099186,56.982094,31.976612,55.71322,31.020313,54.91073C30.103085,54.107506,28.94215,52.878517,28.417957,52.14538C27.288029,50.52427,25.931446,49.299538,21.117142,45.600967C17.382357,42.668686,12.627914,39.484287,12.066049,39.484287C12.065464,39.484287,12.064884,39.48429,12.064308,39.4843L12.061974,39.48433C12.061416,39.484337,12.060854,39.48434,12.060287,39.48434C11.900966,39.48434,11.428908,39.221443,11.033379,38.918304C7.7023554,36.4876,4.693291,34.556644,4.212068,34.556644C4.21136,34.556644,4.2106576,34.55665,4.209961,34.556656L4.206131,34.5567C4.204996,34.556717,4.2038517,34.55672,4.2026987,34.55672C3.8828702,34.55672,2.8606234,34.032585,1.9140778,33.429398C0.9640493,32.78568,0.09503015,32.295834,-0.065630645,32.295834C-0.06594013,32.295834,-0.06624699,32.295834,-0.06655121,32.295837L-0.06865692,32.295868C-0.069368236,32.295876,-0.070087545,32.29588,-0.07081481,32.29588C-0.55750686,32.29588,-4.6098924,30.391771,-4.813179,30.005615C-4.9704356,29.817137,-5.276945,29.669197,-5.583551,29.669197C-5.587345,29.669197,-5.591139,29.66922,-5.5949326,29.669266C-5.597702,29.669296,-5.6004715,29.669357,-5.603241,29.669403C-5.604225,29.669418,-5.605217,29.669464,-5.606209,29.66948C-5.607624,29.669497,-5.6090465,29.669504,-5.610476,29.669504C-5.926607,29.669504,-6.594555,29.255424,-7.1099396,28.76094C-7.8689117,28.032684,-8.617455,27.813324,-10.774132,27.662094C-13.406088,27.497513,-15.891679,27.415016,-18.0603,27.415016 Z"/> </g> </g> </svg>