<?xml version="1.0" encoding="UTF-8"?>
<svg width="176.74mm" height="328.2mm" version="1.1" viewBox="0 0 626.26098 1162.9172" xmlns="http://www.w3.org/2000/svg">
 <g transform="translate(724.65 479.36)">
  <path d="m-271.86-479.36c-19.884-0.061-25.96 0.9079-33.387 4.457-10.107 4.8305-12.692 10.415-8.7344 18.865 1.9943 4.258 2.0746 5.0244 1.0195 9.5508-0.63088 2.7064-1.5909 11.084-2.1348 18.617l-0.98828 13.697 2.6055 3.9375 2.6055 3.9375-2.1035 4.8652c-10.273 23.751-10.319 24.179-2.9316 28.199 4.7932 2.6089 5.0152 3.0382 4.7344 9.1778-0.12544 2.7427 0.32219 3.7647 2.1836 4.9843 1.8957 1.2418 2.2587 2.1043 1.9043 4.5196-0.34863 2.3758 0.15933 3.6492 2.4883 6.2441 2.4691 2.751 2.8135 3.7017 2.2129 6.0938-1.8657 7.4313 0.2573 13.969 4.916 15.139 1.3507 0.339 7.1462-0.2936 12.879-1.4062 5.7327-1.1127 10.74-2.0178 11.127-2.0078 1.0235 0.022 0.86324 10.065-0.19141 11.982-0.49247 0.8953-2.6344 7.7441-4.7578 15.221-4.7781 16.824-6.4409 21.562-7.5703 21.562-1.211 0-6.4648-8.4362-6.4648-10.381 0-0.8672 0.63281-2.1022 1.4062-2.7441 0.90152-0.7482 1.4062-2.8244 1.4062-5.7832 0-3.6503-0.48083-5.096-2.3008-6.916-1.2656-1.2656-2.8088-2.3008-3.4277-2.3008-0.68982 0-0.47632-0.7166 0.55079-1.8516 1.6232-1.7936 1.5828-1.9382-1.2871-4.6191-1.7494-1.6343-5.9573-3.765-10.275-5.2031-7.979-2.6572-11.654-5.6766-14.965-12.295-1.0491-2.0969-2.5412-4.339-3.3164-4.9824-2.1793-1.8086-3.672 1.9244-4.1699 10.436l-0.42382 7.2656h-5.8477c-10.1 0-13.533 5.0658-8.4805 12.512 2.249 3.3142 2.261 3.4249 0.47852 4.3789-2.296 1.2288-4.3006 5.0472-5.1758 9.8614-0.37174 2.0446-1.4623 5.2822-2.4238 7.1953-2.2068 4.3905-2.1891 4.9867 0.22656 7.4023 1.6603 1.6604 1.7725 2.1749 0.70312 3.2246-2.9415 2.8875-12.912 8.0669-24.422 12.686-17.022 6.8304-37.864 18.329-47.162 26.018-4.2133 3.484-11.738 6.7029-15.693 6.7129-5.5552 0.014-11.909-2.9351-22.869-10.619-26.21-18.376-29.466-24.499-22.143-41.625l3.5117-8.2149-0.24219-12.656c-0.13366-6.9609-0.70705-14.977-1.2734-17.812-1.288-6.4496-5.4033-14.873-10.5-21.494-6.3891-8.3003-21.121-19.627-33.934-26.088-28.098-14.17-67.358-9.5556-80.32 9.4394-4.5474 6.6638-7.6196 8.6236-15.646 9.9805-13.981 2.3633-20.344 6.6241-22.645 15.166-2.3187 8.6112 0.17262 16.931 12.418 41.465 7.833 15.694 9.9566 18.387 24.486 31.063 4.6366 4.0447 5.484 5.3021 6.1699 9.1738 0.97393 5.4977 2.3992 7.1426 9.4531 10.902 9.1362 4.8696 18.352 6.8472 33.143 7.1094 16.493 0.2924 16.694 0.4355 17.307 12.381 0.38147 7.4417 0.81766 9.0256 4.4766 16.238 5.7931 11.42 5.9105 13.202 1.7734 27.164-2.6919 9.0846-3.4754 13.36-3.4863 19.025-0.0134 6.9964 0.21429 7.7745 5.3398 18.281 2.9444 6.0357 8.0439 15.404 11.334 20.818s9.0592 16.383 12.818 24.375l6.834 14.531-0.36523 7.0312c-0.9117 17.559-0.64902 21.828 1.7246 28.086 1.5592 4.1102 3.4784 7.12 5.9785 9.375 10.801 9.742 10.006 8.4129 10.006 16.721 0 17.727-3.8057 40.953-8.5957 52.459-1.567 3.764-4.8775 10.463-7.3574 14.887-5.5801 9.9543-10.711 25.168-13.654 40.49-5.4883 28.573-5.0964 34.869 3.2754 52.635 8.8756 18.835 9.1842 20.251 17.463 80.192 1.8516 13.406 4.5838 30.703 6.0703 38.437 5.4734 28.479 8.5765 47.9 8.7324 54.639l0.16016 6.9141-10.781 2.7988c-18.865 4.8973-31.765 10.713-48.281 21.766-4.6406 3.1055-12.023 8.0456-16.406 10.979-24.506 16.399-51.209 28.702-67.158 30.941-10.072 1.414-17.631-0.087-28.809-5.7207-12.919-6.5112-14.341-6.3586-24.453 2.6211-2.5512 2.2656-6.1744 4.902-8.0508 5.8593-5.1151 2.6095-17.371 5.4851-28.254 6.6289-14.52 1.526-13.579 1.1126-14.16 6.2325-0.27884 2.4564-0.3358 4.6407-0.12695 4.8535 0.20885 0.2127 7.3699-0.2177 15.914-0.9571 8.5441-0.7395 17.722-1.1242 20.395-0.8554l4.8594 0.4883 0.31836 3.75c0.50145 5.9185-1.5266 13.004-5.4141 18.922-1.9705 2.9997-9.3196 11.558-16.332 19.02-16.833 17.91-18.076 20.268-19.328 36.676-2.1293 27.913-0.94024 37.582 5.293 43.055 3.0328 2.6628 3.8998 2.952 7.5977 2.5352 7.4506-0.8397 11.179-5.3715 17.139-20.832 4.2156-10.935 7.784-15.754 20.734-28.004 18.301-17.311 28.5-23.98 50.385-32.943 5.5558-2.2755 13.648-5.855 17.98-7.9531 4.3326-2.0982 13.361-5.5458 20.064-7.6622 33.493-10.574 60.104-22.154 80.922-35.213 5.3198-3.337 9.8308-5.9095 10.023-5.7168 0.19264 0.1925-0.47974 2.2029-1.4941 4.4687-3.0024 6.7061-6.2488 20.859-9.3652 40.836-2.8608 18.338-2.9132 19.266-2.3984 42.188 0.28949 12.891 1.2565 29.555 2.1484 37.031 1.6442 13.783 1.964 27.647 0.81445 35.313-0.48248 3.2174-2.936 7.6457-10.371 18.711-5.6355 8.387-10.004 15.895-10.365 17.818-0.343 1.8284-0.41693 6.1945-0.16601 9.7012 0.40014 5.5926 1.183 7.7416 6.3809 17.494 10.455 19.616 10.971 20.918 12.68 32.049l1.6074 10.477h9.0254l-1.3711-4.4531c-7.7466-25.157-9.3569-32.224-7.9453-34.861 1.3976-2.6114 3.3626-2.4278 9.084 0.8536 6.6408 3.8088 10.872 9.3398 18.578 24.281 4.7394 9.189 7.2663 13.095 9.0059 13.92 4.3858 2.0791 31.484 3.28 49.07 2.1739 18.314-1.1518 21.005-1.5657 23.277-3.5704 3.3991-2.9984 1.0884-5.7818-7.1524-8.6171-11.559-3.9771-17.704-7.6833-24.799-14.959-3.7802-3.8767-9.3353-10.732-12.346-15.232-4.4593-6.6667-5.7668-9.5389-7.0488-15.5-0.8655-4.0243-3.4242-14.699-5.6875-23.723-9.3931-37.448-9.2581-48.686 0.97266-80.523 7.8742-24.504 20.15-76.324 23.939-101.05 2.1003-13.706 2.3551-14.652 4.9258-18.361 2.7382-3.9514 6.284-5.2863 16.834-6.334 12.773-1.2686 15.512-2.1019 22.668-6.9004l6.043-4.0528 6.6856 13.889c3.6774 7.6377 8.5311 19.496 10.787 26.352 4.1477 12.604 5.3392 17.861 13.209 58.344 4.6298 23.816 14.624 60.214 24.982 90.983 9.3175 27.676 9.6577 28.26 26.492 45.398 8.5776 8.7323 15.158 16.242 16.004 18.266 1.8427 4.4102 0.62975 8.8701-4.1426 15.234-1.8721 2.4966-4.2049 6.3388-5.1836 8.539-2.9454 6.6212-7.2939 8.3155-27.127 10.568-16.608 1.8866-22.166 4.7081-22.166 11.25 0 4.4694 2.8598 8.0928 7.3164 9.2715 1.906 0.5042 7.6836 1.2009 12.84 1.5488 9.2824 0.6264 9.3889 0.661 10.781 3.502 2.5382 5.1789 4.9134 6.0836 20.156 7.6738 7.7344 0.8069 20.391 1.8432 28.125 2.3027 22.559 1.3401 36.557 0.5812 49.219-2.6699 5.9297-1.5226 13.913-3.2397 17.742-3.8144 4.9846-0.7483 9.1948-2.2035 14.826-5.127 7.6453-3.9689 7.9448-4.043 10.76-2.6387 2.4986 1.2465 3.9337 1.2857 10.457 0.2871 14.015-2.1454 32.465-9.4007 32.465-12.766 0-0.582-0.7985-4.1832-1.7754-8.0039-0.97689-3.8208-2.2815-12.643-2.8984-19.604-1.2951-14.612-2.9519-22.859-5.6602-28.168-1.0532-2.0645-5.9009-9.202-10.771-15.861-16.464-22.511-25.192-36.949-27.508-45.502-0.55837-2.0625-2.1034-8.6015-3.4336-14.531-2.7551-12.282-18.592-55.501-23.531-64.219-1.7529-3.0937-4.9768-7.6771-7.1641-10.186l-3.9766-4.5605 0.22852-8.8555c0.26836-10.369-0.17813-11.525-8.4727-21.867-6.175-7.6997-7.399-10.102-9.0762-17.812-1.0242-4.7091-0.90677-5.8879 1.3574-13.594 2.2588-7.6873 2.4768-9.8524 2.4531-24.354-0.0176-10.783 0.56345-20.156 1.8008-29.062 1.0045-7.2303 2.4822-19.896 3.2852-28.146 1.7209-17.681 5.2274-35.603 11.684-59.732 2.5791-9.6389 5.9674-23.556 7.5293-30.928 1.5619-7.3713 5.3308-22.894 8.377-34.496 3.0461-11.602 5.8051-23.414 6.1308-26.25 1.3764-11.983 6.3253-41.131 7.6973-45.336 1.1108-3.4047 1.3395-6.4658 0.9043-12.109-0.53611-6.9521-1.3918-12.094-6.1973-37.242-0.93603-4.8984-3.8998-14.812-6.5859-22.031-11.897-31.971-14.52-46.29-13.816-75.428 0.56804-23.535 1.0108-25.594 8.9668-41.76 6.7299-13.674 16.496-35.935 24.885-56.719l6.2441-15.469 4.4277-1.7598c7.7366-3.076 40.088-19.928 47.992-24.998 8.2663-5.3026 11.279-9.3867 11.279-15.291 0-6.0382-3.8816-22.627-6.6562-28.449-5.7714-12.111-15.452-19.879-42.48-34.086-17.546-9.2227-20.188-11.577-32.223-28.725-9.4777-13.504-11.453-17.516-11.453-23.252 0-6.9399-1.0181-9.9797-3.8867-11.611-1.4654-0.8334-2.6669-1.8908-2.6699-2.3496s-0.62153-1.3025-1.375-1.875c-1.8344-1.3937-3.0096-9.718-4.334-30.719-1.2503-19.824-0.5581-25.222 4.793-37.414 6.258-14.258 8.118-29.097 5.0996-40.686-3.9325-15.098-21.101-33.132-37.729-39.633-6.1443-2.4022-6.937-2.4738-31.148-2.7988-3.4483-0.046-6.5715-0.075-9.4121-0.084zm-107.34 274.42 2.6055 3.0937c1.4331 1.7021 5.7628 9.3885 9.623 17.08 5.5019 10.962 7.0195 14.862 7.0195 18.047 0 2.2343-0.3164 4.0255-0.70312 3.9805-0.77241-0.09-11.99-7.1408-22.266-13.994-3.6094-2.4073-8.7779-5.6041-11.484-7.1035-2.7065-1.4995-4.9214-3.1642-4.9219-3.6992-1e-3 -1.4465 8.1185-8.9809 14.516-13.469l5.6113-3.9355z"/>
 </g>
</svg>
