<?xml version="1.0" encoding="UTF-8"?>
<svg width="297.21mm" height="338.3mm" version="1.1" viewBox="0 0 1053.1227 1198.6941" xmlns="http://www.w3.org/2000/svg">
 <g transform="translate(7020.8 3749.1)">
  <path d="m-6133.7-3749.1c-19.851 0.2473-33.643 4.7947-38.648 13.004-2.4948 4.0918-2.3602 7.3292 0.541 13.055 2.3804 4.6974 2.3958 4.8573 1 10.516-0.7796 3.1601-1.9056 12.074-2.502 19.808l-1.084 14.063 2.5215 5.0097c2.5187 5.0032 2.5197 5.0163 0.8926 9.375-0.8961 2.4008-2.9875 7.3184-4.6465 10.928-5.0066 10.892-5.5784 13.286-3.8223 15.967 0.8292 1.2654 3.609 3.3644 6.1778 4.6661l4.6699 2.3671v5.5411c0 4.6151 0.3526 5.8268 2.1094 7.25 1.4776 1.1969 2.0203 2.4978 1.8086 4.3437-0.1993 1.7377 0.5259 3.7234 2.1328 5.8301 2.2971 3.0117 2.3855 3.5149 1.5351 8.7949-1.1094 6.8887-0.012 11.455 3.3946 14.135 2.2716 1.7868 3.5131 1.9274 14.92 1.6836 9.2522-0.1976 12.756 0.047 13.662 0.9531 0.89 0.8897 1.2188 4.9397 1.2188 15 0 11.716-0.2694 14.326-1.8028 17.416-2.1131 4.2575-7.3819 7.093-13.234 7.125-4.721 0.026-13.433 2.2539-18.037 4.6113-1.9179 0.982-8.033 5.1893-13.588 9.3497-13.363 10.008-15.248 10.554-37.713 10.938-19.523 0.3333-21.331 0.6121-52.479 8.0918-19.198 4.6099-19.879 4.7044-28.594 3.9687-11.114-0.9382-13.533-0.7616-23.459 1.7109-8.8366 2.2011-23.51 2.7015-37.6 1.2813l-8.0703-0.8145-7.3985 3.5371c-7.8094 3.7327-16.446 11.534-27.508 24.848l-5.0625 6.0938 3.0918 0.3027c2.9756 0.291 5.0942-0.7158 14.478-6.8809l2.7149-1.7832-0.6192 3.2422c-0.3405 1.7838-0.8775 6.2597-1.1914 9.9453-0.522 6.1284-0.4032 6.7907 1.3711 7.7403 1.8661 0.9988 1.8865 1.2164 0.543 5.7402-1.5359 5.1717-1.2505 6.25 1.9805 7.4785 3.2252 1.2262 7.7858-0.3834 15.584-5.5019 16.866-11.07 36.124-19.821 43.623-19.811 2.4923 0 11.07 1.0527 19.062 2.3359 55.353 8.8875 71.705 10.969 90.938 11.58l19.219 0.6114-0.1876 2.3437c-0.1033 1.2891-0.8418 9.9374-1.6406 19.219-2.6062 30.282-7.0781 95.106-7.0781 102.6 0 9.4244-0.4853 9.8606-10.084 9.0703-3.9923-0.3287-14.643-1.0038-23.666-1.502-9.0235-0.4981-22.312-1.798-29.531-2.8886-16.828-2.5423-22.218-2.116-30.937 2.4472l-6.5626 3.4336-10.816-0.6367c-10.934-0.6438-16.504 0.3314-15.584 2.7285 0.2502 0.6522-1.5534 1.0429-5.0391 1.0899-8.0821 0.1098-14.454 3.588-21.734 11.865-10.864 12.351-22.183 23.195-24.213 23.195-1.0712 0-6.6688-2.8022-12.438-6.2266-5.7688-3.4245-15.689-8.9631-22.047-12.309-6.3574-3.3456-15.428-8.8485-20.156-12.228-18.034-12.891-37.983-27.951-46.098-34.801-4.6405-3.9173-13.078-10.037-18.75-13.598-19.682-12.356-25.342-16.331-31.004-21.773-8.7747-8.4343-25.566-31.914-35.09-49.066-7.6017-13.69-34.665-57.339-37.398-60.318-3.9655-4.3221-13.333-11.44-18.449-14.02-6.7427-3.399-14.492-5.2019-24.777-5.7618-7.7942-0.4244-9.6663-0.8831-14.994-3.6757-5.2359-2.7442-6.174-3.6329-6.7071-6.3477-0.341-1.7363-1.082-5.4039-1.6465-8.1504-1.5397-7.491-1.2646-12.416 0.8907-15.951 1.4204-2.3298 2.32-2.9581 3.5117-2.4511 9.3715 3.9868 17.659 6.1776 21.305 5.6308 5.6328-0.8448 7.3223-3.1181 7.791-10.478 0.3539-5.5573 0.6105-6.191 2.8359-7.0371 3.2398-1.2317 3.858-2.3819 3.875-7.207 0.01-2.4112 0.6083-4.6472 1.4824-5.5215 0.9636-0.9635 1.4203-2.955 1.3243-5.791-0.081-2.378-0.1105-4.7952-0.064-5.3711 0.046-0.5757 2.1934-1.9227 4.7715-2.9942 4.5473-1.8898 4.6875-2.0634 4.6875-5.7968 0-2.1166-0.6856-5.175-1.5234-6.795-0.8377-1.6201-2.4994-5.8175-3.6934-9.3281-1.7065-5.0172-1.8934-6.3828-0.873-6.3828 0.714 0 2.481-1.0913 3.9277-2.4258 2.1038-1.9406 2.2556-2.3139 0.7559-1.8633-1.5676 0.4711-1.4908 0.2443 0.4687-1.3808l2.3437-1.9434-3 1.4629c-4.0728 1.9855-5.6535 1.9121-3.8164-0.1777 0.7933-0.9024 2.3897-3.5264 3.5489-5.8301 1.8982-3.7728 2.0355-4.936 1.3789-11.719-0.401-4.1416-0.8383-11.622-0.9727-16.625-0.2684-10.002-1.4072-14.653-4.2051-17.186-1.0118-0.9157-1.8398-2.6271-1.8398-3.8027 0-5.5466-6.5212-15.587-13.59-20.924-16.684-12.596-32.059-17.592-51.469-16.719-13.135 0.5908-18.758 1.8861-25.295 5.8223l-5.1973 3.1289-4.4902-3.2071c-8.4862-6.0609-14.714-6.1507-24.978-0.3574-8.3833 4.7312-11.489 8.7143-14.252 18.277-2.551 8.8287-2.1419 16.407 1.4043 25.99 1.6643 4.4977 3.8711 9.2531 4.9043 10.566 2.574 3.2723 6.6718 5.2251 10.354 4.9355l3.0782-0.2421 0.092 12.187c0.098 13.032 0.4815 14.633 5.4883 22.932 2.6958 4.4681 3.3531 6.8313 4.7051 16.912 0.8645 6.4453 1.8047 19.523 2.0879 29.062 0.4853 16.345 0.3777 17.911-1.8711 27.188-1.3125 5.4141-2.5262 10.621-2.6953 11.572-0.2742 1.542-1.4728 1.7605-11.088 2.0175-14.237 0.3805-19.197 1.3783-40.066 8.0508-23.002 7.3545-30.378 8.2362-51.809 6.2012-13.078-1.2418-16.859-1.9736-24.461-4.7402-6.1507-2.2384-11.927-3.579-18.281-4.2422-37.382-3.9012-50.692-4.1266-62.219-1.0567-9.7272 2.5907-14.065 2.2647-29.594-2.2246-20.272-5.8605-40.704-8.6942-43.383-6.0156-3.0586 3.0586 0.8045 5.7997 9.6562 6.8496 6.3977 0.7589 12.48 3.1408 17.192 6.7344 3.0837 2.352 3.1496 2.5258 1.457 3.7871-0.9758 0.7269-7.1849 4.0828-13.799 7.457-13.924 7.1037-19.381 11.634-19.381 16.09 0 5.0928 3.3457 4.067 19.127-5.8575 4.5904-2.8869 9.02-5.2357 9.8437-5.2207s-3.8824 5.1826-10.459 11.484-11.953 12.195-11.953 13.098c0 1.2363 0.7798 1.6406 3.1543 1.6406 2.8558 0 3.1111 0.2197 2.7051 2.3438-0.3762 1.9679-0.093 2.342 1.7695 2.332 3.1283-0.016 8.4441-3.2562 21.428-13.066 13.7-10.351 16.701-12.23 19.584-12.23 2.1405 0 2.2066 0.1939 1.6406 4.918-0.3764 3.1419-2.291 8.3122-5.2929 14.297-5.0775 10.123-5.7177 13.969-2.9043 17.443 1.5327 1.8929 1.9722 2.0124 3.3144 0.8984 0.8514-0.7066 3.0675-4.0006 4.9239-7.3203 4.3728-7.8193 12.604-16.664 18.1-19.449 2.3886-1.2104 7.6214-3.154 11.629-4.3183 6.996-2.0328 7.7804-2.0708 19.637-0.9688 14.765 1.3723 19.315 2.4758 35.064 8.4981 16.23 6.2062 24.202 7.6165 45.363 8.0312 20.545 0.4027 23.36 1.04 40.201 9.082 6.4453 3.0778 17.97 8.1017 25.611 11.166 15.876 6.3671 17.726 7.4102 19.312 10.893 1.0836 2.3781 4.2824 32.845 6.6231 63.076 0.5788 7.4766 1.8736 20.766 2.8769 29.531 1.9953 17.432 2.3492 36.07 0.8594 45.25-2.2965 14.152-10.138 32.614-22.588 53.188-15.217 25.147-17.464 30.084-23.699 52.031-6.1588 21.68-8.2086 34.776-8.7539 55.965-0.5401 20.981 0.4628 31.386 4.6601 48.375l2.9649 11.996-1.1504 17.535c-0.6319 9.6445-1.8957 21.223-2.8106 25.73l-1.664 8.1953 3.332 0.539c9.1654 1.4853 8.6307 1.1255 8.0625 5.42-1.6215 12.258-3.48 32.468-5.2285 56.869-2.683 37.439-4.8523 55.092-7.8965 64.26-3.7886 11.409-11.443 23.251-27.246 42.146-29.22 34.94-36.099 49.328-40.785 85.313-1.0744 8.25-3.0102 20.273-4.3008 26.719-2.75 13.734-13.894 48.065-18.262 56.26-3.6872 6.9178-11.306 14.169-21.19 20.166-4.0272 2.4436-10.085 6.2729-13.461 8.5097-9.9249 6.5751-12.709 13.891-9.8848 25.982 3.0322 12.983 2.0023 17.472-7.4961 32.65-3.8219 6.1074-6.9492 11.668-6.9492 12.355 0 0.6875 0.9545 2.1462 2.1211 3.2422l2.1211 1.9922 7.957-11.83c12.104-17.996 14.856-20.134 21.49-16.703 4.0831 2.1115 9.8049 9.1773 13.52 16.695 2.6174 5.2971 3.8606 9.7164 5.6367 20.031 3.3826 19.644 6.5432 25.044 16.713 28.557 5.9869 2.0677 20.526 2.2697 38.014 0.5254 13.919-1.3883 14.771-1.9627 14.771-9.9316 1e-4 -6.8127-1.2193-8.316-10.264-12.666-7.3814-3.5503-16.82-12.447-17.94-16.908-0.3535-1.4086 0.042-6.6298 0.8789-11.604 0.8366-4.9737 2.1621-15.16 2.9453-22.637 2.1967-20.969 4.8463-34.063 8.9161-44.062 20.487-50.339 21.174-51.864 32.744-72.656 7.1615-12.869 26.446-51.703 32.356-65.156 7.3179-16.66 10.119-22.116 19.168-37.316 5.1247-8.6089 10.006-16.496 10.848-17.527 1.4817-1.816 1.5163-1.7865 1.0625 0.9376-0.2577 1.5467-1.6147 13.53-3.0137 26.629l-2.5429 23.816 1.6035 12.418c2.5885 20.04 6.9564 34.495 21.648 71.668 17.57 44.454 20.998 56.387 19.91 69.295-0.7511 8.9109-2.989 14.666-8.5977 22.111-6.4271 8.5315-7.0689 9.8716-7.0449 14.703 0.024 4.6757 1.7556 8.7693 7.8613 18.578 2.4071 3.8672 5.4629 10.507 6.791 14.754 2.2153 7.0838 2.3857 8.8029 2.0567 20.785l-0.3594 13.062 2.6152 0.3828c1.4383 0.2111 3.4006-0.1669 4.3614-0.8399 1.5532-1.0879 1.7978-2.9688 2.1953-16.949 0.4169-14.653 1.5774-21.82 3.5332-21.82 1.4191 0 6.9909 7.8355 10.299 14.482 1.971 3.9605 4.2171 7.0797 5.625 7.8106 1.7163 0.8912 6.485 1.1407 17.812 0.9316 17.421-0.3214 19.066-0.8006 33.387-9.7266 8.5193-5.3099 10.676-7.8822 10.676-12.734 0-3.3553-0.3026-3.7989-3.5156-5.1465-1.9335-0.811-7.1879-2.2282-11.676-3.1504-4.488-0.9223-8.6034-1.9514-9.1465-2.2871-1.9535-1.2074-3.9012-6.3525-7.0371-18.588-1.7545-6.8454-5.3074-18.336-7.8945-25.535-5.0195-13.967-13.452-46.933-14.98-58.557-0.5083-3.8672-1.4028-13.57-1.9863-21.562s-1.7091-21.703-2.502-30.469-1.8-23.742-2.2383-33.281c-0.4384-9.5391-1.2771-21.562-1.8632-26.719-1.0843-9.5411-0.871-14.491 1.4101-32.812 0.7061-5.6719 1.5675-17.063 1.9141-25.313 0.7766-18.484 3.1694-32.967 12.16-73.594 3.8225-17.273 8.0351-37.945 9.3614-45.938 1.3262-7.9922 3.4399-20.016 4.6972-26.719 1.2574-6.703 2.9286-17.25 3.7149-23.437 0.7864-6.1876 2.4967-19.477 3.7988-29.531 1.3023-10.055 3.6358-31.992 5.1855-48.75 6.2387-67.458 13.928-120.92 24.344-169.22 6.4486-29.905 6.7879-30.96 13.475-42.104 7.3217-12.202 11.373-22.594 11.373-29.166v-4.707l21.633 19.98c11.898 10.99 24.042 21.782 26.986 23.984s11.885 7.5635 19.867 11.914 18.408 10.188 23.17 12.973c25.12 14.689 53.299 27.689 82.701 38.154 6.693 2.3822 14.287 5.3761 16.875 6.6543 9.9684 4.9253 13.831 5.8249 21.068 4.9161 14.923-1.8738 18.705-2.8849 24.19-6.4707 5.7417-3.7538 13.982-11.387 21.15-19.59 3.8925-4.4536 4.3906-4.7651 4.3906-2.748 0 6.0035 3.0049 12.413 8.3047 17.717 2.9096 2.9119 6.2713 6.6107 7.4707 8.2207 2.8737 3.8574 6.7135 3.8912 12.674 0.1113 6.9635-4.4162 12.066-6.7914 29.842-13.893 20.503-8.1908 24.507-8.9688 41.766-8.1074l13.338 0.666 0.4922 2.9356c1.0937 6.5229 2.4683 20.258 4.7031 46.996 6.8339 81.762 12.8 139.36 19.197 185.38 4.0988 29.479 7.1084 53.133 8.0254 63.063 0.3332 3.6093 1.3966 9.3046 2.3633 12.656 2.485 8.6162 4.3804 18.032 5.5801 27.734 0.5686 4.5977 2.8827 17.852 5.1445 29.453 6.2967 32.298 7.3306 40.708 6.7988 55.312-0.3275 8.9925-0.043 15.099 0.9824 21.094 0.9636 5.6343 1.3996 13.732 1.3106 24.375-0.1185 14.208 0.1777 17.564 2.7305 30.937 2.6842 14.061 2.8237 15.851 2.2168 28.594-0.5022 10.541-0.3194 15.383 0.8164 21.562 2.5039 13.618 3.3799 24.681 2.4648 31.08-1.4003 9.7928-8.9649 30.361-18.912 51.42-3.0445 6.4453-7.445 16.241-9.7793 21.77-5.261 12.459-10.022 19.911-18.035 28.223-7.1286 7.394-11.276 10.068-20.43 13.182-8.8102 2.9965-11.443 4.4817-15.42 8.7012-4.8192 5.1128-6.8335 8.9919-6.1289 11.799 0.798 3.1794 2.4575 3.4815 19.359 3.5215 9.4667 0.022 18.779 0.6738 26.719 1.8672 6.7032 1.0075 15.984 1.8314 20.625 1.832 9.4135 0 11.962-0.8453 21.91-7.2929 3.2844-2.1286 7.5031-4.1345 9.375-4.4571 1.8718-0.3226 7.4866-1.598 12.478-2.834 11.887-2.9434 14.358-2.9017 17.106 0.293 1.9127 2.2237 3.0118 2.5877 8.7891 2.9141 3.8928 0.22 12.826-0.5043 21.77-1.7656 13.398-1.8894 15.26-2.3662 15.959-4.086 0.4353-1.0709 1.6425-7.4694 2.6836-14.219 1.0411-6.7492 2.3203-13.394 2.8418-14.766 1.1016-2.8972 3.3323-3.4289 2.5976-0.6191-0.2697 1.0313-0.1079 1.875 0.3594 1.875 0.4674 0 0.8494 1.1602 0.8594 2.5781 0.014 3.9162 4.027 11.707 7.5625 14.682 3.0875 2.5979 3.314 2.6397 11.148 2.0078 16.458-1.3276 23.434-4.0842 31.988-12.639 6.9544-6.9544 11.467-14.121 14.607-23.197 2.4301-7.0232 2.5456-8.204 2.6836-27.494 0.081-11.352 0.6724-23.319 1.3535-27.398l1.209-7.2442 5.3965-1.0605 5.3945-1.0625 0.168-40.914c0.092-22.503 0.2401-51.039 0.3281-63.414 0.2088-29.229-1.0203-63.752-2.7539-77.344-0.7563-5.9297-1.7792-20.273-2.2734-31.875-0.4941-11.602-1.5409-27.211-2.3262-34.688-0.822-7.8271-1.7868-30.894-2.2734-54.375-1.2048-58.153-1.5425-63.491-5.2539-83.096-3.0494-16.106-3.2208-18.082-3.2208-37.5 0-21.466-0.795-28.632-5.0019-45.318l-2.1426-8.5 1.8731-4.3261c1.8376-4.2452 1.8411-4.4528 0.1777-10.996-1.9461-7.655-16.024-56.669-20.092-69.953-3.4298-11.2-6.1906-24.479-8.0586-38.762-1.7905-13.689-2.1432-61.481-0.5273-71.392 1.4404-8.8352 9.6547-41.278 13.73-54.227 8.1178-25.792 11.606-45.897 11.606-66.9 0-15.91-1.725-27.99-5.5371-38.773-3.8701-10.947-11.961-24.716-19.207-32.682-3.5549-3.9082-10.757-12.168-16.004-18.356-22.915-27.024-24.869-32.008-20.988-53.506 1.5656-8.6723 3.8771-14.194 9.8398-23.516 8.1407-12.726 10.903-23.158 11.008-41.572 0.083-14.627-1.7956-25.37-5.6797-32.473-3.3415-6.1108-23.504-25.83-29.1-28.461-6.7397-3.168-32.689-8.1627-49.131-9.457-5.1929-0.4088-10.095-0.5805-14.676-0.5235zm95.299 1080.3c0.078-1e-4 0.1609 0.013 0.2481 0.035 3.005 0.7781 3.5788 13.814 1.3105 29.766-2.4315 17.098-3.0799 15.339-2.9629-8.0527 0.094-18.763 0.2382-21.746 1.4043-21.748z"/>
 </g>
</svg>
